name GIL02_free2.mot
datacolumns 153
datarows 4
range 0.36666667 0.39166668
endheader

                time	           pelvis_tx	           pelvis_ty	           pelvis_tz	         pelvis_tilt	         pelvis_list	     pelvis_rotation	       hip_flexion_r	     hip_adduction_r	      hip_rotation_r	        knee_angle_r	       ankle_angle_r	    subtalar_angle_r	         mtp_angle_r	       hip_flexion_l	     hip_adduction_l	      hip_rotation_l	        knee_angle_l	       ankle_angle_l	    subtalar_angle_l	         mtp_angle_l	    lumbar_extension	      lumbar_bending	     lumbar_rotation	     ground_force_vx	     ground_force_vy	     ground_force_vz	     ground_force_px	     ground_force_py	     ground_force_pz	     ground_force_vx	     ground_force_vy	     ground_force_vz	     ground_force_px	     ground_force_py	     ground_force_pz	     ground_torque_x	     ground_torque_y	     ground_torque_z	     ground_torque_x	     ground_torque_y	     ground_torque_z	    ground_marker_px	    ground_marker_py	    ground_marker_pz	    ground_marker_px	    ground_marker_py	    ground_marker_pz	    ground_marker_px	    ground_marker_py	    ground_marker_pz	    ground_marker_px	    ground_marker_py	    ground_marker_pz	    ground_marker_px	    ground_marker_py	    ground_marker_pz	    ground_marker_px	    ground_marker_py	    ground_marker_pz	    ground_marker_px	    ground_marker_py	    ground_marker_pz	    ground_marker_px	    ground_marker_py	    ground_marker_pz	    ground_marker_px	    ground_marker_py	    ground_marker_pz	    ground_marker_px	    ground_marker_py	    ground_marker_pz	    ground_marker_px	    ground_marker_py	    ground_marker_pz	    ground_marker_px	    ground_marker_py	    ground_marker_pz	    ground_marker_px	    ground_marker_py	    ground_marker_pz	    ground_marker_px	    ground_marker_py	    ground_marker_pz	    ground_marker_px	    ground_marker_py	    ground_marker_pz	    ground_marker_px	    ground_marker_py	    ground_marker_pz	    ground_marker_px	    ground_marker_py	    ground_marker_pz	    ground_marker_px	    ground_marker_py	    ground_marker_pz	    ground_marker_px	    ground_marker_py	    ground_marker_pz	    ground_marker_px	    ground_marker_py	    ground_marker_pz	    ground_marker_px	    ground_marker_py	    ground_marker_pz	    ground_marker_px	    ground_marker_py	    ground_marker_pz	    ground_marker_px	    ground_marker_py	    ground_marker_pz	    ground_marker_px	    ground_marker_py	    ground_marker_pz	    ground_marker_px	    ground_marker_py	    ground_marker_pz	    ground_marker_px	    ground_marker_py	    ground_marker_pz	    ground_marker_px	    ground_marker_py	    ground_marker_pz	    ground_marker_px	    ground_marker_py	    ground_marker_pz	    ground_marker_px	    ground_marker_py	    ground_marker_pz	    ground_marker_px	    ground_marker_py	    ground_marker_pz	    ground_marker_px	    ground_marker_py	    ground_marker_pz	    ground_marker_px	    ground_marker_py	    ground_marker_pz	    ground_marker_px	    ground_marker_py	    ground_marker_pz	    ground_marker_px	    ground_marker_py	    ground_marker_pz	    ground_marker_px	    ground_marker_py	    ground_marker_pz	    ground_marker_px	    ground_marker_py	    ground_marker_pz	    ground_marker_px	    ground_marker_py	    ground_marker_pz	
          0.36666667	          1.46676445	          0.96611643	         -0.20238051	          0.73031616	          2.72343469	          1.23269212	         -4.99892378	         -3.08771300	         12.55958271	         -3.77324820	          8.69624233	          0.00000000	          0.00000000	         21.90428543	          2.29770494	         -0.76135272	        -37.14828873	         -0.11726718	          0.00000000	          0.00000000	         -9.74921227	          2.70143700	         -2.82808781	        -12.46218243	        536.39560449	        -19.27425299	          1.38442505	          0.00000000	         -0.14336176	          0.00000000	          0.00000000	          0.00000000	          1.83119482	          0.00000000	         -0.22814032	          0.00000000	          2.32241162	          0.00000000	          0.00000000	          0.00000000	          0.00000000	          1.38098729	          0.89662027	         -0.19876766	          1.38238966	          0.87435108	         -0.13073246	          1.38061225	          0.88199174	         -0.28095713	          1.35264468	          0.47060412	         -0.12907919	          1.54533601	          0.48737070	         -0.28580835	          1.28824055	          0.06983893	         -0.15824203	          1.44739413	          0.10812013	         -0.28073812	          1.46676445	          0.96611643	         -0.20238051	          1.46817505	          0.96005237	         -0.08315354	          1.46535397	          0.97218049	         -0.32160747	          1.27806890	          1.00377822	         -0.16664293	          1.28318357	          1.00333619	         -0.25251454	          1.36623168	          0.46983612	         -0.07218409	          1.54483545	          0.48787469	         -0.34380400	          1.33036423	          0.47857234	         -0.18136400	          1.55806112	          0.48796216	         -0.22522600	          1.27968490	          0.06837249	         -0.11919526	          1.42474973	          0.11354980	         -0.31202316	          1.29603088	          0.08375648	         -0.18723041	          1.45808578	          0.11930795	         -0.25519398	          1.27875388	          1.43083906	         -0.17426373	          1.40648437	          1.35173941	         -0.13159393	          1.41116369	          1.36128604	         -0.23733710	          1.39174461	          1.36433017	         -0.18150280	          1.47286963	          1.20152545	         -0.20449938	          1.42640817	          0.56911480	         -0.00086896	          1.66092730	          0.63542432	         -0.30132821	          1.43507385	          0.63688827	         -0.06417058	          1.57474852	          0.65763122	         -0.33685467	          1.42471659	          0.55233765	         -0.09158474	          1.58980060	          0.57104695	         -0.32758659	          1.32780457	          0.18840420	         -0.02626426	          1.46800578	          0.24360359	         -0.39969218	          1.30394828	          0.16285473	         -0.09977834	          1.45440483	          0.20925285	         -0.32707027	          1.40985644	          0.03966743	         -0.13952057	          1.54735684	          0.05316465	         -0.31422859	
          0.37500000	          1.47587895	          0.96506429	         -0.20208997	          0.75420856	          2.87276530	          0.93480366	         -5.68568039	         -3.20022440	         13.12402821	         -3.62649560	          9.22288227	          0.00000000	          0.00000000	         22.14329529	          2.36279297	         -0.42025957	        -34.50321579	          0.01532267	          0.00000000	          0.00000000	         -9.96457863	          2.44127917	         -2.36650395	        -10.80704301	        541.38090836	        -19.25731564	          1.38826685	          0.00000000	         -0.14329611	          0.00000000	          0.00000000	          0.00000000	          1.83472998	          0.00000000	         -0.22894531	          0.00000000	          2.43391650	          0.00000000	          0.00000000	          0.00000000	          0.00000000	          1.39047122	          0.89585036	         -0.19927701	          1.39111936	          0.87317514	         -0.13105731	          1.39018250	          0.88104725	         -0.28127760	          1.35663557	          0.47008213	         -0.12934919	          1.55682015	          0.48670623	         -0.28530729	          1.28834081	          0.06982300	         -0.15847844	          1.47809720	          0.10314095	         -0.28033751	          1.47587895	          0.96506429	         -0.20208997	          1.47662246	          0.95881742	         -0.08288409	          1.47513533	          0.97131115	         -0.32129586	          1.28712118	          1.00270700	         -0.16742121	          1.29253268	          1.00225937	         -0.25337365	          1.37049639	          0.46913713	         -0.07252282	          1.55699825	          0.48737413	         -0.34330317	          1.33579993	          0.47737119	         -0.18147530	          1.56945515	          0.48855123	         -0.22306986	          1.27987897	          0.06842349	         -0.11940878	          1.45529068	          0.10741562	         -0.31168383	          1.29618669	          0.08373056	         -0.18753763	          1.48826182	          0.11482047	         -0.25482145	          1.28840840	          1.43011272	         -0.17423835	          1.41610622	          1.35075366	         -0.13094245	          1.42048717	          1.36013222	         -0.23706254	          1.40125704	          1.36319304	         -0.18129924	          1.48198283	          1.20029736	         -0.20395748	          1.43223190	          0.56802499	         -0.00147892	          1.67100859	          0.63588929	         -0.29898584	          1.44093478	          0.63578880	         -0.06486619	          1.58489347	          0.65756303	         -0.33560804	          1.43041706	          0.55125815	         -0.09202923	          1.60108912	          0.57160920	         -0.32562730	          1.32942426	          0.18809114	         -0.02647192	          1.49217463	          0.23947085	         -0.39935425	          1.30540478	          0.16277871	         -0.10027768	          1.47977555	          0.20376012	         -0.32626179	          1.40977335	          0.03963263	         -0.13950364	          1.58085513	          0.05354002	         -0.31338313	
          0.38333336	          1.48499656	          0.96387970	         -0.20186216	          0.76032352	          3.00979114	          0.59712082	         -6.31591988	         -3.31062174	         13.73372364	         -3.54456711	          9.76487160	          0.00000000	          0.00000000	         22.33750916	          2.40003037	         -0.15112406	        -31.76297188	          0.04275876	          0.00000000	          0.00000000	        -10.06315899	          2.06012344	         -1.92138255	         -8.88612642	        547.53291633	        -19.42836561	          1.39186243	          0.00000000	         -0.14326614	          0.00000000	          0.00000000	          0.00000000	          1.83823999	          0.00000000	         -0.22979626	          0.00000000	          2.50989795	          0.00000000	          0.00000000	          0.00000000	          0.00000000	          1.40011573	          0.89511240	         -0.19969144	          1.39977789	          0.87192249	         -0.13146988	          1.39977956	          0.87997466	         -0.28168356	          1.36081219	          0.46950918	         -0.12966023	          1.56788337	          0.48572206	         -0.28484121	          1.28841138	          0.06983722	         -0.15869389	          1.50875115	          0.09874789	         -0.27991268	          1.48499656	          0.96387970	         -0.20186216	          1.48499513	          0.95749116	         -0.08268365	          1.48499787	          0.97026825	         -0.32104066	          1.29624093	          1.00158024	         -0.16821334	          1.30193317	          1.00107336	         -0.25424784	          1.37495184	          0.46839523	         -0.07290570	          1.56869674	          0.48653334	         -0.34282982	          1.34184527	          0.47542343	         -0.18168887	          1.57783639	          0.48553056	         -0.22580127	          1.28008175	          0.06850573	         -0.11959344	          1.48586679	          0.10184448	         -0.31134075	          1.29622102	          0.08368669	         -0.18773152	          1.51850855	          0.11054923	         -0.25450283	          1.29802215	          1.42910492	         -0.17411917	          1.42590237	          1.34991777	         -0.13055474	          1.43003738	          1.35886991	         -0.23699717	          1.41085124	          1.36197841	         -0.18113676	          1.49166167	          1.19918633	         -0.20322396	          1.43819141	          0.56687409	         -0.00214856	          1.68070459	          0.63575685	         -0.29683399	          1.44701600	          0.63449389	         -0.06603810	          1.59491670	          0.65704948	         -0.33416849	          1.43647385	          0.54983896	         -0.09267054	          1.61093032	          0.57095754	         -0.32595837	          1.33120036	          0.18776791	         -0.02669474	          1.51629722	          0.23559670	         -0.39902675	          1.30666935	          0.16266844	         -0.10047001	          1.50555444	          0.19878589	         -0.32597256	          1.40970290	          0.03959036	         -0.13950437	          1.61407554	          0.05446732	         -0.31236526	
          0.39166668	          1.49412942	          0.96256477	         -0.20169307	          0.75285244	          3.13309741	          0.22119346	         -6.89158535	         -3.41618395	         14.36284637	         -3.53496432	         10.30769730	          0.00000000	          0.00000000	         22.48682022	          2.40843773	          0.03310587	        -28.95252419	         -0.04603339	          0.00000000	          0.00000000	        -10.03861809	          1.86598527	         -1.56948411	         -6.55164410	        554.73163129	        -20.01523089	          1.39525427	          0.00000000	         -0.14322792	          0.00000000	          0.00000000	          0.00000000	          1.84156860	          0.00000000	         -0.23063510	          0.00000000	          2.53548096	          0.00000000	          0.00000000	          0.00000000	          0.00000000	          1.40955269	          0.89404780	         -0.19999404	          1.40838671	          0.87059027	         -0.13196261	          1.40942061	          0.87876737	         -0.28216597	          1.36521053	          0.46887586	         -0.13001744	          1.57855964	          0.48444885	         -0.28441066	          1.28847933	          0.06991058	         -0.15887238	          1.53921962	          0.09500115	         -0.27946097	          1.49412942	          0.96256477	         -0.20169307	          1.49330914	          0.95607811	         -0.08254170	          1.49494958	          0.96905142	         -0.32084444	          1.30541718	          1.00037825	         -0.16901812	          1.31138587	          0.99977809	         -0.25513446	          1.37961030	          0.46760267	         -0.07333168	          1.57995117	          0.48537573	         -0.34238657	          1.34666443	          0.47473848	         -0.18176892	          1.58564222	          0.48359641	         -0.22604823	          1.28030777	          0.06865168	         -0.11973620	          1.51634789	          0.09691079	         -0.31099242	          1.29623365	          0.08367347	         -0.18792143	          1.54865766	          0.10697519	         -0.25405714	          1.30774474	          1.42767930	         -0.17398202	          1.43542266	          1.34872615	         -0.13041654	          1.43959200	          1.35752738	         -0.23704250	          1.42051470	          1.36067462	         -0.18103832	          1.50123906	          1.19790316	         -0.20291767	          1.44426227	          0.56566012	         -0.00285368	          1.69003642	          0.63501698	         -0.29491514	          1.45340276	          0.63320887	         -0.06712123	          1.60458851	          0.65616155	         -0.33279753	          1.44221330	          0.54897714	         -0.09331210	          1.62013018	          0.56946993	         -0.32515153	          1.33311677	          0.18743844	         -0.02692533	          1.54030991	          0.23206012	         -0.39869595	          1.30814505	          0.16257118	         -0.10055636	          1.53163242	          0.19480647	         -0.32611319	          1.40964389	          0.03953991	         -0.13952243	          1.64691293	          0.05593505	         -0.31116822	
